<svg preserveAspectRatio="none" width="100%" height="100%" overflow="visible" style="display: block;" viewBox="0 0 188.566 102.782" fill="none" xmlns="http://www.w3.org/2000/svg">
<g id="Pump">
<path id="Nozzle Body" d="M102.065 0.0035611C104.905 -0.163618 115.159 5.60331 118.548 7.22869C125.231 10.6479 131.683 12.9523 137.066 18.4023C142.034 23.4318 144.903 23.1015 141.324 30.5113C143.257 33.0646 148.128 37.1113 150.661 39.4102C157.805 45.8943 165.055 52.3418 172.255 58.7618C174.024 60.0453 177.539 66.0302 178.961 66.8879C190.392 73.7825 192.012 75.0251 181.699 84.2779C180.838 85.0505 177.669 88.6428 176.449 88.9351C170.915 90.2612 168.505 81.1156 165.239 78.2433C163.796 76.9766 163.15 76.7751 161.509 76.2274C159.192 78.8587 155.616 82.3082 153.096 84.8866C149.874 88.1718 137.377 102.015 134.462 102.754C133.765 102.93 132.862 102.232 132.319 101.842C128.238 98.9015 121.973 91.8638 118.071 87.9518C112.472 82.3394 106.42 76.8789 101.15 70.9846C99.1885 68.7925 97.6248 66.2602 95.574 64.1415C92.2338 60.6961 85.1304 56.0336 83.0079 52.1805C81.6954 49.7971 80.4931 37.2043 79.9471 33.5956C79.0037 33.2089 77.7579 32.7128 76.9632 32.1125C75.825 31.282 74.4612 28.7938 72.9744 28.6305C68.5704 28.1461 69.7034 24.0207 70.3315 20.8433C70.7596 18.6705 71.3492 15.7925 72.2695 13.5902C73.805 12.9202 75.015 12.8266 76.5966 12.0115C80.6443 9.92458 85.3868 10.4528 89.8934 10.4841C93.9283 7.26075 97.8171 2.08459 102.065 0.0035611Z" fill="var(--fill-0, black)"/>
<path id="Nozzle Tip" d="M118.615 53.3708C130.253 53.4996 130.635 58.7026 134.073 68.2465C135.754 72.9701 137.472 77.6803 139.225 82.3773C137.4 83.1693 135.488 83.7983 133.609 84.4526C133.124 82.7862 132.094 80.238 131.46 78.5547C130.309 75.4524 129.051 72.0668 127.897 68.9888C124.906 61.0037 123.837 61.8003 116.741 64.2006C117.223 66.3175 117.728 68.4283 118.258 70.5329C111.919 63.9675 115.487 61.0462 118.615 53.3708Z" fill="var(--fill-0, #111827)"/>
<path id="Nozzle Collar" d="M43.9918 11.1345C48.6702 10.6716 62.5386 13.6781 68.25 14.1063C67.5399 17.7239 66.7786 21.5183 66.1992 25.1475C60.8236 23.9301 50.28 22.526 44.7352 22.2375C43.4253 22.1693 37.6882 23.4375 36.0809 23.7752L23.5045 26.4357C16.7985 27.8757 8.15699 29.9098 1.51759 30.8963C1.06129 27.3591 0.399902 24.0183 0 20.3886C9.62329 17.9845 19.6311 16.3004 29.321 14.1016C34.1122 13.0139 39.1545 11.9816 43.9918 11.1345Z" fill="var(--fill-0, black)"/>
</g>
</svg>
